<?xml version="1.0" encoding="utf-8"?>
<!-- Generator: Adobe Illustrator 18.1.1, SVG Export Plug-In . SVG Version: 6.00 Build 0)  -->
<svg version="1.1" id="Layer_1" xmlns="http://www.w3.org/2000/svg" xmlns:xlink="http://www.w3.org/1999/xlink" x="0px" y="0px"
	 viewBox="0 0 100 100" enable-background="new 0 0 100 100" xml:space="preserve">
<g>
	<path fill="#FFFFFF" d="M63.7,40.5l-3.1-4.7c-1.1-1.7-1.7-3.6-1.8-5.6L57.7,9C58.5,8.3,59,7.3,59,6.1V3.6c0-2-1.6-3.6-3.6-3.6h-11
		c-2,0-3.6,1.6-3.6,3.6v2.5c0,1.2,0.6,2.2,1.4,2.9l-1,21.1c-0.1,2-0.7,4-1.8,5.6l-3.1,4.7c-2,3.1-3.1,6.6-3.1,10.2V67
		c0,0.8,0.7,1.5,1.5,1.5s1.5-0.6,1.5-1.4V50.6c0-3,0.9-6,2.6-8.5l3.1-4.7c1.3-2,2.1-4.3,2.3-6.6h11.6c0.2,2.4,1,4.6,2.3,6.6l3.1,4.7
		c1.7,2.5,2.6,5.5,2.6,8.5V67c0,0.8,0.7,1.5,1.5,1.5s1.5-0.7,1.5-1.5V50.6C66.8,47,65.7,43.5,63.7,40.5z M54.8,9.7l0.3,5.1H45
		l0.2-5.1H54.8z M44.8,17.8h10.3l0.5,10.1H44.3L44.8,17.8z M43.8,3.6c0-0.4,0.3-0.6,0.6-0.6h11c0.4,0,0.6,0.3,0.6,0.6v2.5
		c0,0.4-0.3,0.6-0.6,0.6h-11c-0.4,0-0.6-0.3-0.6-0.6V3.6z"/>
	<path fill="#FFFFFF" d="M65.2,72.5c-0.8,0-1.5,0.7-1.5,1.5v20.5c0,1.4-1.1,2.5-2.5,2.5H38.8c-1.4,0-2.5-1.1-2.5-2.5V74
		c0-0.8-0.7-1.5-1.5-1.5s-1.5,0.7-1.5,1.5v20.5c0,3,2.5,5.5,5.5,5.5h22.5c3,0,5.5-2.5,5.5-5.5V74C66.8,73.2,66.1,72.5,65.2,72.5z"/>
	<path fill="#FFFFFF" d="M44.5,51.5h2.1c0.8,0,1.5-0.7,1.5-1.5s-0.7-1.5-1.5-1.5h-2.1c-3,0-5.4,2.4-5.4,5.4v27.6
		c0,3,2.4,5.4,5.4,5.4h11c3,0,5.4-2.4,5.4-5.4V53.9c0-3-2.4-5.4-5.4-5.4h-2.1c-0.8,0-1.5,0.7-1.5,1.5s0.7,1.5,1.5,1.5h2.1
		c1.4,0,2.5,1.1,2.5,2.5v27.6c0,1.4-1.1,2.5-2.5,2.5h-11c-1.4,0-2.5-1.1-2.5-2.5V53.9C42,52.6,43.2,51.5,44.5,51.5z"/>
</g>
</svg>
