<?xml version="1.0" encoding="utf-8"?>
<!-- Generator: Adobe Illustrator 18.1.1, SVG Export Plug-In . SVG Version: 6.00 Build 0)  -->
<svg version="1.1" id="Layer_1" xmlns="http://www.w3.org/2000/svg" xmlns:xlink="http://www.w3.org/1999/xlink" x="0px" y="0px"
	 viewBox="0 0 43 100" enable-background="new 0 0 43 100" xml:space="preserve">
<g>
	<path fill="#DCAF3D" d="M27.4,61.5c8-5.2,13.7-13.7,15.2-23.1c0.7-4.4,0.6-8.8-0.4-13L37.4,6c-0.2-0.8-0.9-1.4-1.8-1.4
		c-0.5-1.3-1.7-2.3-3.2-2.4c-0.6,0-1.1,0-1.6,0.2C30,1.4,28.7,1,27.5,1c-0.6,0-1.2,0.1-1.8,0.4C24.5,0.5,23.1,0,21.6,0
		c-1.5,0-2.9,0.5-4.1,1.4C16.9,1.1,16.3,1,15.7,1c-1.3,0-2.5,0.4-3.3,1.3c-0.5-0.2-1.1-0.3-1.6-0.2C9.2,2.2,8,3.2,7.5,4.5
		C6.6,4.5,5.9,5.1,5.7,6L1,25.3c-1,4.3-1.2,8.7-0.6,13c1.4,9.5,6.8,17.9,14.8,23.1l4.3,2.9v24.7L5.1,96.3c-0.8,0.4-1.1,1.3-0.9,2.2
		c0.2,0.8,1,1.5,1.9,1.5h31c0.9,0,1.6-0.7,1.8-1.5c0.2-0.8-0.7-1.7-1.5-2.1l-15-7.3V64.4L27.4,61.5z M15.9,3.9c0.5,0,1,0,1.4,0.3
		c0.3,0.2,0.8,0.1,1-0.2c0.9-0.8,2-1.2,3.2-1.2c1.2,0,2.3,0.4,3.2,1.2c0.3,0.2,0.7,0.3,1,0.1c0.5-0.2,0.9-0.1,1.4-0.1
		C28,3.9,28.8,4,29.3,5H13.8C14.4,4,15.1,3.9,15.9,3.9z M9,9h25.3l2.3,9c-1.1-0.1-2.2-0.5-3-0.8l-0.1-0.1c-1.5-0.6-3.5-1-5.5-1
		c-2,0-4,0.3-5.5,0.9l0,0c-1,0.4-2.6,0.7-4.1,0.7c-1.5,0-3-0.3-4.1-0.7l-0.1,0c-1.5-0.6-3.5-1-5.5-1c-0.6,0-1.2,0.4-1.8,0.5L9,9z
		 M29.2,97H13.9l7.6-3.8L29.2,97z M21.6,61.2l-4.2-2.8c-7.1-4.6-12-12.1-13.3-20.6C3.6,34.4,3.6,31,4.3,27.7l1.8-7.5
		c0.8-0.2,1.8-0.3,2.7-0.3c1.5,0,3,0.3,4.1,0.7l0,0c1.5,0.6,3.5,1,5.5,1c2,0,4-0.3,5.5-1l0,0c1-0.4,2.6-0.7,4.1-0.7
		c1.5,0,3,0.3,4.1,0.7l0,0c1.4,0.6,3.3,0.9,5.3,1l1.5,6.1c0.6,3.4,0.7,6.8,0.2,10.2c-1.3,8.4-6.1,15.9-13.3,20.6L21.6,61.2z"/>
	<path fill="#DCAF3D" d="M35,39.5c0.2-1-0.4-2-1.4-2.3s-2,0.4-2.3,1.4c-1.1,4.5-3.5,8.4-6.9,11.5c-0.8,0.7-0.8,1.9-0.2,2.6
		c0.4,0.4,0.9,0.6,1.4,0.6c0.4,0,0.9-0.2,1.2-0.5C30.9,49.4,33.7,44.7,35,39.5z"/>
	<path fill="#DCAF3D" d="M33.8,33.9c0.5,0,1-0.2,1.3-0.5c0.3-0.3,0.5-0.8,0.5-1.3c0-0.5-0.2-1-0.5-1.3c-0.3-0.3-0.8-0.5-1.3-0.5
		c-0.5,0-1,0.2-1.3,0.5s-0.5,0.8-0.5,1.3c0,0.5,0.2,1,0.5,1.3C32.8,33.7,33.3,33.9,33.8,33.9z"/>
</g>
</svg>
