<?xml version="1.0" encoding="utf-8"?>
<!-- Generator: Adobe Illustrator 18.1.1, SVG Export Plug-In . SVG Version: 6.00 Build 0)  -->
<svg version="1.1" id="Layer_1" xmlns="http://www.w3.org/2000/svg" xmlns:xlink="http://www.w3.org/1999/xlink" x="0px" y="0px"
	 viewBox="0 0 100 100" enable-background="new 0 0 100 100" xml:space="preserve">
<g>
	<path fill="#FFFFFF" d="M55.9,61.5c8-5.2,13.7-13.7,15.2-23.1c0.7-4.4,0.6-8.8-0.4-13L65.9,6c-0.2-0.8-0.9-1.4-1.8-1.4
		c-0.5-1.3-1.7-2.3-3.2-2.4c-0.6,0-1.1,0-1.6,0.2C58.5,1.4,57.2,1,56,1c-0.6,0-1.2,0.1-1.8,0.4C53,0.5,51.6,0,50.1,0
		S47.2,0.5,46,1.4C45.4,1.1,44.8,1,44.2,1c-1.3,0-2.5,0.4-3.3,1.3c-0.5-0.2-1.1-0.3-1.6-0.2c-1.6,0.1-2.8,1.1-3.3,2.4
		c-0.9,0-1.6,0.6-1.8,1.5l-4.7,19.3c-1,4.3-1.2,8.7-0.6,13c1.4,9.5,6.8,17.9,14.8,23.1l4.3,2.9V89l-14.4,7.3
		c-0.8,0.4-1.1,1.3-0.9,2.2c0.2,0.8,1,1.5,1.9,1.5h31c0.9,0,1.6-0.7,1.8-1.5c0.2-0.8-0.7-1.7-1.5-2.1l-15-7.3V64.4L55.9,61.5z
		 M44.4,3.9c0.5,0,1,0,1.4,0.3c0.3,0.2,0.8,0.1,1-0.2c0.9-0.8,2-1.2,3.2-1.2s2.3,0.4,3.2,1.2c0.3,0.2,0.7,0.3,1,0.1
		C54.7,3.9,55.1,4,55.6,4c0.9-0.1,1.7,0,2.2,1H42.3C42.9,4,43.6,3.9,44.4,3.9z M37.5,9h25.3l2.3,9c-1.1-0.1-2.2-0.5-3-0.8L62,17.1
		c-1.5-0.6-3.5-1-5.5-1s-4,0.3-5.5,0.9l0,0c-1,0.4-2.6,0.7-4.1,0.7s-3-0.3-4.1-0.7h-0.1c-1.5-0.6-3.5-1-5.5-1
		c-0.6,0-1.2,0.4-1.8,0.5L37.5,9z M57.7,97H42.4l7.6-3.8L57.7,97z M50.1,61.2l-4.2-2.8c-7.1-4.6-12-12.1-13.3-20.6
		c-0.5-3.4-0.5-6.8,0.2-10.1l1.8-7.5c0.8-0.2,1.8-0.3,2.7-0.3c1.5,0,3,0.3,4.1,0.7l0,0c1.5,0.6,3.5,1,5.5,1s4-0.3,5.5-1l0,0
		c1-0.4,2.6-0.7,4.1-0.7s3,0.3,4.1,0.7l0,0c1.4,0.6,3.3,0.9,5.3,1l1.5,6.1c0.6,3.4,0.7,6.8,0.2,10.2c-1.3,8.4-6.1,15.9-13.3,20.6
		L50.1,61.2z"/>
	<path fill="#FFFFFF" d="M63.5,39.5c0.2-1-0.4-2-1.4-2.3s-2,0.4-2.3,1.4c-1.1,4.5-3.5,8.4-6.9,11.5c-0.8,0.7-0.8,1.9-0.2,2.6
		c0.4,0.4,0.9,0.6,1.4,0.6c0.4,0,0.9-0.2,1.2-0.5C59.4,49.4,62.2,44.7,63.5,39.5z"/>
	<path fill="#FFFFFF" d="M62.3,33.9c0.5,0,1-0.2,1.3-0.5s0.5-0.8,0.5-1.3s-0.2-1-0.5-1.3s-0.8-0.5-1.3-0.5s-1,0.2-1.3,0.5
		s-0.5,0.8-0.5,1.3s0.2,1,0.5,1.3S61.8,33.9,62.3,33.9z"/>
</g>
</svg>
