<?xml version="1.0" encoding="utf-8"?>
<!-- Generator: Adobe Illustrator 18.1.1, SVG Export Plug-In . SVG Version: 6.00 Build 0)  -->
<svg version="1.1" id="Layer_1" xmlns="http://www.w3.org/2000/svg" xmlns:xlink="http://www.w3.org/1999/xlink" x="0px" y="0px"
	 viewBox="0 0 58.5 100" enable-background="new 0 0 58.5 100" xml:space="preserve">
<g>
	<path fill="#DCAF3D" d="M57.5,11.4c-0.6-0.6-1.5-1-2.4-1h-0.1v-0.1c0-3.8-3.1-6.8-6.8-6.8c-1,0-1.9,0.2-2.8,0.6
		c-1.6-1.5-3.6-2.3-5.8-2.3c-1.1,0-2.2,0.2-3.2,0.7C34.3,0.8,31.8,0,29.3,0s-5.1,0.8-7.2,2.4c-1-0.4-2.1-0.7-3.2-0.7
		c-2.2,0-4.3,0.8-5.8,2.3c-0.9-0.4-1.8-0.6-2.8-0.6c-3.8,0-6.8,3.1-6.8,6.8v0.1H3.3c-0.9,0-1.7,0.4-2.4,1c-0.6,0.6-1,1.5-1,2.4
		c0.2,20.5,3.2,31.3,6.1,41.8c2.8,10,5.7,20.3,6,39.5c0,2.8,2.3,5,5.1,5h24.3c2.8,0,5-2.2,5.1-5c0.3-19.2,3.2-29.5,6-39.5
		c2.9-10.4,5.9-21.2,6.1-41.8C58.5,12.8,58.2,12,57.5,11.4z M3.3,13.6C3.3,13.6,3.3,13.6,3.3,13.6l3.5,0c1,0,1.8,0.8,1.8,1.8
		c0,2.8,2.3,5.1,5.1,5.1s5.1-2.3,5.1-5.1c0-1,0.8-1.8,1.8-1.8h3.5c1,0,1.8,0.8,1.8,1.8v11c-0.5,0.2-0.9,0.3-1.3,0.5
		c-1,0.4-1.7,0.7-3.4,0.7c-1.7,0-2.4-0.3-3.4-0.7c-1.1-0.5-2.3-1-4.7-1c-2.3,0-3.6,0.5-4.7,1c-1,0.4-1.7,0.7-3.4,0.7
		c-0.4,0-0.8,0-1.2-0.1C3.5,23.5,3.3,19,3.3,13.6C3.2,13.7,3.3,13.7,3.3,13.6L3.3,13.6z M49.3,54.6c-2.8,10.2-5.8,20.7-6.1,40.3
		c0,1-0.8,1.8-1.8,1.8H17.1c-1,0-1.8-0.8-1.8-1.8C15,75.4,12.1,64.8,9.2,54.6c-2-7.1-3.9-14-5-23.8c0.3,0,0.6,0,0.9,0
		c2.3,0,3.6-0.5,4.7-1c1-0.4,1.7-0.7,3.4-0.7c1.7,0,2.4,0.3,3.4,0.7c1.1,0.5,2.3,1,4.7,1c2.3,0,3.6-0.5,4.7-1c0,0,0,0,0,0v18.4
		c0,2.8,2.3,5.1,5.1,5.1s5.1-2.3,5.1-5.1v-3.5c0-0.9-0.7-1.6-1.6-1.6s-1.6,0.7-1.6,1.6v3.5c0,1-0.8,1.8-1.8,1.8s-1.8-0.8-1.8-1.8
		V15.4c0-2.8-2.3-5.1-5.1-5.1h-3.5c-2.8,0-5.1,2.3-5.1,5.1c0,1-0.8,1.8-1.8,1.8s-1.8-0.8-1.8-1.8c0-2.8-2.3-5.1-5.1-5.1H6.7v-0.1
		c0-2,1.6-3.6,3.6-3.6c0.8,0,1.5,0.3,2.1,0.7c0.3,0.3,0.8,0.4,1.2,0.3c0.4-0.1,0.8-0.3,1.1-0.6c1-1.4,2.6-2.1,4.2-2.1
		c0.9,0,1.8,0.2,2.6,0.7C22.1,6,22.9,6,23.4,5.5C25,4,27.1,3.2,29.3,3.2s4.2,0.8,5.8,2.3C35.6,6,36.4,6,37,5.7
		C37.8,5.2,38.7,5,39.6,5c1.7,0,3.2,0.8,4.2,2.1c0.3,0.3,0.6,0.6,1.1,0.6c0.4,0.1,0.9-0.1,1.2-0.3c0.6-0.5,1.4-0.7,2.1-0.7
		c2,0,3.6,1.6,3.6,3.6v0.1h-0.1c-2.8,0-5.1,2.3-5.1,5.1v3.5c0,0.9,0.7,1.6,1.6,1.6s1.6-0.7,1.6-1.6v-3.5c0-1,0.8-1.8,1.8-1.8h3.4
		c0,0,0.1,0,0.1,0c0,0,0,0.1,0,0.1c0,5.2-0.3,9.8-0.6,13.9c-0.4,0-0.8,0.1-1.2,0.1c-1.7,0-2.4-0.3-3.4-0.7c-0.1,0-0.1,0-0.2-0.1v-1
		c0-0.9-0.7-1.6-1.6-1.6s-1.6,0.7-1.6,1.6v2c0,0.1,0,0.2,0,0.3v1.2c0,1-0.8,1.8-1.8,1.8S43,30.3,43,29.3V15.4c0-2.8-2.3-5.1-5.1-5.1
		c-1.4,0-2.6,0.5-3.6,1.5c-1,1-1.5,2.2-1.5,3.6l0,13.4c0,0,0,0,0,0l0,9c0,0.9,0.7,1.6,1.6,1.6c0.9,0,1.6-0.7,1.6-1.6l0-7.1
		c0.4,0,0.8,0.1,1.3,0.1c1.1,0,1.9-0.1,2.6-0.3c0.6,2.1,2.6,3.7,4.9,3.7c2.4,0,4.5-1.7,5-4c0.9,0.3,2,0.6,3.7,0.6c0.3,0,0.6,0,0.9,0
		C53.2,40.6,51.3,47.5,49.3,54.6L49.3,54.6z M37.3,27.6c-0.5,0-0.9,0-1.3-0.1l0-12.1c0-0.5,0.2-0.9,0.5-1.3c0.3-0.3,0.8-0.5,1.3-0.5
		c1,0,1.8,0.8,1.8,1.8v11.9C39.1,27.5,38.4,27.6,37.3,27.6z"/>
	<path fill="#DCAF3D" d="M37.9,89.8H20.6c-0.9,0-1.6,0.7-1.6,1.6c0,0.9,0.7,1.6,1.6,1.6h17.3c0.9,0,1.6-0.7,1.6-1.6
		C39.5,90.6,38.8,89.8,37.9,89.8z"/>
</g>
</svg>
