<?xml version="1.0" encoding="utf-8"?>
<!-- Generator: Adobe Illustrator 18.1.1, SVG Export Plug-In . SVG Version: 6.00 Build 0)  -->
<svg version="1.1" id="Layer_1" xmlns="http://www.w3.org/2000/svg" xmlns:xlink="http://www.w3.org/1999/xlink" x="0px" y="0px"
	 viewBox="0 0 100 100" enable-background="new 0 0 100 100" xml:space="preserve">
<g>
	<g>
		<g>
			<path fill="#FFFFFF" d="M55.9,88.1c-1.1,0-2,0.9-2,2s0.9,2,2,2s2-0.9,2-2C57.8,89,57,88.1,55.9,88.1z"/>
		</g>
	</g>
	<g>
		<g>
			<path fill="#FFFFFF" d="M28.5,39.1c-1.1,0-2,0.9-2,2v37.3c0,1.1,0.9,2,2,2s2-0.9,2-2V41.1C30.4,40,29.5,39.1,28.5,39.1z"/>
		</g>
	</g>
	<g>
		<g>
			<path fill="#FFFFFF" d="M44,39.1c-1.1,0-2,0.9-2,2v37.3c0,1.1,0.9,2,2,2s2-0.9,2-2V41.1C46,40,45.2,39.1,44,39.1z"/>
		</g>
	</g>
	<g>
		<g>
			<path fill="#FFFFFF" d="M83.2,31.5h-9.8v-5.9c3.1-2.3,4.5-6.2,3.7-10C76.4,12,73.4,9,69.8,8.3c-1.9-0.4-3.8-0.3-5.6,0.4
				c-1.8-2.8-4.9-4.5-8.2-4.5c-1.3,0-2.5,0.2-3.7,0.7C49,1.8,44.7,0,40.2,0c-5.9,0-11.4,3-14.6,7.9C15.4,7.4,7,15.5,7,25.5v23.4
				c0,3.2,2.7,5.9,6,5.9c0.7,0,1.4-0.1,2-0.4v35.8c0,5.4,4.4,9.8,9.8,9.8h39c5.4,0,9.8-4.4,9.8-9.8v-5.9h9.8c5.4,0,9.8-4.4,9.8-9.8
				V41.2C92.9,35.8,88.6,31.5,83.2,31.5z M69.6,88.2h-6c-1.1,0-2,0.9-2,2s0.9,1.9,2,1.9h5.6c-0.8,2.3-3,3.9-5.5,3.9h-39
				c-2.5,0-4.7-1.6-5.5-3.9h28.8c1.1,0,2-0.9,2-2s-0.9-2-2-2H18.9V48.8V35.1c4.4-0.7,8.2-3.4,10.2-7.5c0.4,0,0.8,0.1,1,0.4
				c2.2,2.2,5.1,3.4,8.2,3.4c3.2,0,6.2-1.3,8.4-3.6c0.1-0.1,0.3-0.2,0.5-0.2c3,0,5,0.6,5.9,1.9c0.7,1.1,0.7,2.5,0.7,3.7v7.9
				c0,2.5,1.6,4.7,3.9,5.5v31.8c0,1.1,0.9,2,2,2s2-0.9,2-2V46.6c2.3-0.8,3.9-3,3.9-5.5V27.3c1.4,0.3,2.8,0.3,4.1,0L69.6,88.2
				L69.6,88.2z M64.4,22.9c-0.6-0.3-1.3-0.3-1.9,0.1c-0.6,0.4-0.9,1-0.9,1.7v16.5c0,1.1-0.9,2-2,2s-2-0.9-2-2v-7.9
				c0-1.5,0-3.9-1.4-5.9c-1.7-2.4-4.7-3.6-9.1-3.6c-1.2,0-2.4,0.5-3.3,1.4c-1.5,1.5-3.5,2.4-5.6,2.4c-2.1,0-4-0.8-5.5-2.2
				c-1-1-2.3-1.5-3.8-1.5s-2.9,0.9-3.5,2.2c-1.6,3.3-4.9,5.4-8.6,5.5c-1.1,0-1.9,0.9-1.9,2v15.5c-0.1,1.1-1,2-2,2c-1.1,0-2-0.9-2-2
				V25.5c0-7.5,6.2-13.6,13.7-13.6c0.6,0,1.2,0,1.8,0.1c0.8,0.1,1.6-0.3,1.9-1c2.4-4.3,7-7,11.9-7c3.8,0,7.6,1.7,10.2,4.6
				c0.6,0.7,1.7,0.9,2.5,0.3C53.8,8.3,54.9,8,56,8c2.5,0,4.7,1.6,5.5,3.9c0.2,0.6,0.7,1,1.2,1.2c0.6,0.2,1.2,0.1,1.7-0.2
				c1.3-0.9,3-1.2,4.6-0.8c2.1,0.5,3.9,2.2,4.4,4.3C74.4,21.4,69.4,25.4,64.4,22.9z M73.4,43.2h7.8v29.5h-7.8V43.2z M89.1,74.6
				c0,3.2-2.6,5.9-5.9,5.9h-9.8v-3.9h9.8c1.1,0,2-0.9,2-2V41.2c0-1.1-0.9-2-2-2h-9.8v-3.9h9.8c3.2,0,5.9,2.6,5.9,5.9V74.6z"/>
		</g>
	</g>
</g>
</svg>
